<svg width="800" height="400" viewBox="0 0 800 400" xmlns="http://www.w3.org/2000/svg"><defs><pattern id="satori_pattern_id_0" x="0" y="0" width="1" height="1" patternUnits="objectBoundingBox"><linearGradient id="satori_biid_0" x1="0" y1="0" x2="0" y2="1" spreadMethod="pad"><stop offset="0%" stop-color="#dbf4ff"/><stop offset="100%" stop-color="#fff1f1"/></linearGradient><rect x="0" y="0" width="800" height="400" fill="url(#satori_biid_0)"/></pattern></defs><mask id="satori_om-id"><rect x="0" y="0" width="800" height="400" fill="#fff"/></mask><rect x="0" y="0" width="800" height="400" fill="url(#satori_pattern_id_0)"/><clipPath id="satori_bct-id-0"><path d="M269.3 149.1L269.3 149.1L253.8 149.1L253.8 105.5L269.4 105.5Q276.0 105.5 280.7 108.1Q285.5 110.7 288.0 115.6Q290.6 120.5 290.6 127.3L290.6 127.3Q290.6 134.1 288.0 139.0Q285.5 143.9 280.7 146.5Q275.9 149.1 269.3 149.1ZM263.0 113.4L263.0 141.2L268.9 141.2Q273.0 141.2 275.8 139.8Q278.6 138.3 280.0 135.2Q281.4 132.1 281.4 127.3L281.4 127.3Q281.4 122.4 280.0 119.4Q278.6 116.3 275.8 114.8Q273.0 113.4 268.9 113.4L268.9 113.4L263.0 113.4ZM310.2 149.8L310.2 149.8Q305.1 149.8 301.5 147.7Q297.9 145.7 295.9 141.9Q293.9 138.1 293.9 132.9L293.9 132.9Q293.9 127.9 295.9 124.0Q297.9 120.2 301.4 118.1Q305.0 116.0 309.8 116.0L309.8 116.0Q313.0 116.0 315.9 117.0Q318.7 118.0 320.8 120.1Q322.9 122.2 324.0 125.3Q325.2 128.4 325.2 132.6L325.2 132.6L325.2 135.1L297.6 135.1L297.6 129.5L316.7 129.5Q316.7 127.5 315.8 126.0Q314.9 124.5 313.4 123.6Q311.9 122.7 310.0 122.7L310.0 122.7Q307.9 122.7 306.3 123.7Q304.7 124.6 303.8 126.2Q302.9 127.8 302.9 129.8L302.9 129.8L302.9 135.1Q302.9 137.5 303.8 139.3Q304.7 141.1 306.4 142.0Q308.0 143.0 310.3 143.0L310.3 143.0Q311.8 143.0 313.1 142.6Q314.3 142.1 315.2 141.3Q316.1 140.4 316.6 139.2L316.6 139.2L325.0 139.8Q324.4 142.8 322.4 145.0Q320.4 147.3 317.3 148.5Q314.2 149.8 310.2 149.8ZM312.8 112.2L306.3 112.2L310.9 102.5L319.3 102.5L312.8 112.2ZM343.9 149.8L343.9 149.8Q338.9 149.8 335.3 147.6Q331.7 145.5 329.7 141.7Q327.8 137.9 327.8 132.9L327.8 132.9Q327.8 127.9 329.7 124.1Q331.7 120.3 335.3 118.1Q338.9 116.0 343.9 116.0L343.9 116.0Q348.1 116.0 351.4 117.5Q354.6 119.1 356.5 121.9Q358.3 124.7 358.5 128.5L358.5 128.5L350.0 128.5Q349.6 126.0 348.0 124.5Q346.5 123.0 344.0 123.0L344.0 123.0Q341.9 123.0 340.3 124.2Q338.8 125.3 337.9 127.5Q337.0 129.7 337.0 132.8L337.0 132.8Q337.0 135.9 337.9 138.1Q338.7 140.3 340.3 141.4Q341.9 142.6 344.0 142.6L344.0 142.6Q345.6 142.6 346.8 141.9Q348.1 141.3 348.9 140.1Q349.7 138.9 350.0 137.1L350.0 137.1L358.5 137.1Q358.3 140.9 356.5 143.7Q354.7 146.6 351.5 148.2Q348.3 149.8 343.9 149.8ZM377.1 149.8L377.1 149.8Q372.2 149.8 368.6 147.6Q365.0 145.5 363.0 141.7Q361.0 137.9 361.0 132.9L361.0 132.9Q361.0 127.8 363.0 124.0Q365.0 120.2 368.6 118.1Q372.2 116.0 377.1 116.0L377.1 116.0Q382.1 116.0 385.7 118.1Q389.3 120.2 391.3 124.0Q393.3 127.8 393.3 132.9L393.3 132.9Q393.3 137.9 391.3 141.7Q389.3 145.5 385.7 147.6Q382.1 149.8 377.1 149.8ZM377.2 142.7L377.2 142.7Q379.4 142.7 381.0 141.4Q382.5 140.2 383.3 137.9Q384.0 135.7 384.0 132.8L384.0 132.8Q384.0 130.0 383.3 127.7Q382.5 125.5 381.0 124.2Q379.4 122.9 377.2 122.9L377.2 122.9Q374.9 122.9 373.4 124.2Q371.8 125.5 371.0 127.7Q370.3 130.0 370.3 132.8L370.3 132.8Q370.3 135.7 371.0 137.9Q371.8 140.2 373.4 141.4Q374.9 142.7 377.2 142.7ZM418.2 135.2L418.2 135.2L418.2 116.4L427.2 116.4L427.2 149.1L418.5 149.1L418.5 143.2L418.2 143.2Q417.1 146.1 414.5 147.8Q411.9 149.6 408.3 149.6L408.3 149.6Q405.0 149.6 402.5 148.1Q400.0 146.6 398.6 143.8Q397.2 141.1 397.2 137.2L397.2 137.2L397.2 116.4L406.3 116.4L406.3 135.6Q406.3 138.5 407.8 140.2Q409.3 141.9 411.9 141.9L411.9 141.9Q413.6 141.9 415.0 141.1Q416.4 140.4 417.3 138.9Q418.2 137.4 418.2 135.2ZM453.4 116.4L463.0 116.4L451.6 149.1L441.3 149.1L429.9 116.4L439.5 116.4L446.3 139.8L446.6 139.8L453.4 116.4ZM474.7 149.1L465.6 149.1L465.6 116.4L474.4 116.4L474.4 122.1L474.8 122.1Q475.7 119.1 477.8 117.5Q479.9 115.9 482.6 115.9L482.6 115.9Q483.3 115.9 484.1 116.0Q484.9 116.1 485.5 116.2L485.5 116.2L485.5 124.3Q484.9 124.1 483.7 124.0Q482.6 123.8 481.7 123.8L481.7 123.8Q479.7 123.8 478.1 124.7Q476.5 125.5 475.6 127.1Q474.7 128.6 474.7 130.6L474.7 130.6L474.7 149.1ZM501.5 149.8L501.5 149.8Q496.5 149.8 492.9 147.7Q489.2 145.7 487.3 141.9Q485.3 138.1 485.3 132.9L485.3 132.9Q485.3 127.9 487.3 124.0Q489.2 120.2 492.8 118.1Q496.4 116.0 501.2 116.0L501.2 116.0Q504.4 116.0 507.2 117.0Q510.0 118.0 512.1 120.1Q514.2 122.2 515.4 125.3Q516.6 128.4 516.6 132.6L516.6 132.6L516.6 135.1L488.9 135.1L488.9 129.5L508.0 129.5Q508.0 127.5 507.2 126.0Q506.3 124.5 504.8 123.6Q503.3 122.7 501.3 122.7L501.3 122.7Q499.3 122.7 497.7 123.7Q496.1 124.6 495.2 126.2Q494.3 127.8 494.3 129.8L494.3 129.8L494.3 135.1Q494.3 137.5 495.2 139.3Q496.1 141.1 497.8 142.0Q499.4 143.0 501.7 143.0L501.7 143.0Q503.2 143.0 504.5 142.6Q505.7 142.1 506.6 141.3Q507.5 140.4 508.0 139.2L508.0 139.2L516.4 139.8Q515.7 142.8 513.8 145.0Q511.8 147.3 508.7 148.5Q505.6 149.8 501.5 149.8ZM547.8 149.1L520.3 149.1L520.3 143.7L536.3 123.9L536.3 123.6L520.9 123.6L520.9 116.4L547.3 116.4L547.3 122.3L532.2 141.6L532.2 141.9L547.8 141.9L547.8 149.1Z "/></clipPath><defs><pattern id="satori_pattern_id-0_0" x="0" y="0" width="1" height="1" patternUnits="objectBoundingBox"><linearGradient id="satori_biid-0_0" x1="0" y1="0" x2="1" y2="0" spreadMethod="pad"><stop offset="0%" stop-color="rgb(0, 124, 240)"/><stop offset="100%" stop-color="rgb(0, 223, 216)"/></linearGradient><rect x="0" y="0" width="301" height="73" fill="url(#satori_biid-0_0)"/></pattern></defs><mask id="satori_om-id-0"><rect x="250" y="91" width="301" height="73" fill="#fff"/></mask><rect x="250" y="91" width="301" height="73" fill="url(#satori_pattern_id-0_0)" clip-path="url(#satori_bct-id-0)"/><clipPath id="satori_bct-id-1"><path d="M264.7 222.1L236.8 222.1L236.8 178.5L246.0 178.5L246.0 214.5L264.7 214.5L264.7 222.1ZM262.6 178.5L269.1 178.5L269.1 195.1L262.6 195.1L262.6 178.5ZM283.1 222.7L283.1 222.7Q279.9 222.7 277.5 221.6Q275.0 220.5 273.6 218.4Q272.2 216.2 272.2 213.0L272.2 213.0Q272.2 210.3 273.2 208.4Q274.2 206.5 275.9 205.4Q277.7 204.3 279.9 203.7Q282.1 203.1 284.5 202.9L284.5 202.9Q287.4 202.6 289.1 202.3Q290.9 202.1 291.6 201.5Q292.4 201.0 292.4 200.0L292.4 200.0L292.4 199.8Q292.4 197.8 291.2 196.7Q289.9 195.6 287.6 195.6L287.6 195.6Q285.1 195.6 283.7 196.7Q282.2 197.8 281.8 199.4L281.8 199.4L273.4 198.7Q274 195.7 275.9 193.5Q277.8 191.3 280.7 190.2Q283.7 189.0 287.6 189.0L287.6 189.0Q290.3 189.0 292.8 189.6Q295.3 190.3 297.3 191.6Q299.2 192.9 300.4 195.0Q301.5 197.1 301.5 200.1L301.5 200.1L301.5 222.1L292.9 222.1L292.9 217.6L292.6 217.6Q291.9 219.1 290.5 220.3Q289.2 221.4 287.4 222.1Q285.5 222.7 283.1 222.7ZM285.7 216.5L285.7 216.5Q287.7 216.5 289.2 215.7Q290.7 214.9 291.6 213.5Q292.5 212.2 292.5 210.4L292.5 210.4L292.5 207.0Q292.1 207.2 291.3 207.5Q290.6 207.7 289.7 207.9Q288.8 208.0 287.8 208.2Q286.9 208.3 286.2 208.4L286.2 208.4Q284.6 208.7 283.4 209.2Q282.2 209.7 281.5 210.5Q280.9 211.4 280.9 212.7L280.9 212.7Q280.9 214.5 282.2 215.5Q283.6 216.5 285.7 216.5ZM318.6 222.7L318.6 222.7Q314.9 222.7 311.9 220.7Q308.9 218.8 307.1 215.0Q305.3 211.3 305.3 205.8L305.3 205.8Q305.3 200.2 307.2 196.4Q309.0 192.7 312.0 190.8Q315.0 189.0 318.6 189.0L318.6 189.0Q321.3 189.0 323.2 189.9Q325.0 190.8 326.2 192.2Q327.3 193.6 327.9 194.9L327.9 194.9L328.2 194.9L328.2 178.5L337.2 178.5L337.2 222.1L328.3 222.1L328.3 216.9L327.9 216.9Q327.3 218.2 326.1 219.6Q324.9 220.9 323.1 221.8Q321.3 222.7 318.6 222.7ZM321.5 215.4L321.5 215.4Q323.7 215.4 325.2 214.2Q326.7 213.0 327.6 210.9Q328.4 208.7 328.4 205.8L328.4 205.8Q328.4 202.8 327.6 200.7Q326.8 198.5 325.2 197.4Q323.7 196.2 321.5 196.2L321.5 196.2Q319.3 196.2 317.7 197.4Q316.2 198.6 315.4 200.8Q314.6 202.9 314.6 205.8L314.6 205.8Q314.6 208.6 315.4 210.8Q316.2 213.0 317.7 214.2Q319.3 215.4 321.5 215.4ZM351.8 222.1L342.7 222.1L342.7 189.4L351.5 189.4L351.5 195.1L351.8 195.1Q352.7 192.1 354.8 190.5Q356.9 188.9 359.7 188.9L359.7 188.9Q360.4 188.9 361.2 189.0Q361.9 189.1 362.5 189.2L362.5 189.2L362.5 197.3Q361.9 197.1 360.8 197.0Q359.6 196.8 358.7 196.8L358.7 196.8Q356.7 196.8 355.1 197.7Q353.6 198.5 352.7 200.1Q351.8 201.6 351.8 203.6L351.8 203.6L351.8 222.1ZM378.6 222.8L378.6 222.8Q373.5 222.8 369.9 220.7Q366.3 218.7 364.3 214.9Q362.3 211.1 362.3 205.9L362.3 205.9Q362.3 200.9 364.3 197.0Q366.3 193.2 369.8 191.1Q373.4 189.0 378.2 189.0L378.2 189.0Q381.5 189.0 384.3 190.0Q387.1 191.0 389.2 193.1Q391.3 195.2 392.4 198.3Q393.6 201.4 393.6 205.6L393.6 205.6L393.6 208.1L366.0 208.1L366.0 202.5L385.1 202.5Q385.1 200.5 384.2 199.0Q383.4 197.5 381.9 196.6Q380.4 195.7 378.4 195.7L378.4 195.7Q376.3 195.7 374.7 196.7Q373.1 197.6 372.2 199.2Q371.3 200.8 371.3 202.8L371.3 202.8L371.3 208.1Q371.3 210.5 372.2 212.3Q373.1 214.1 374.8 215.0Q376.5 216.0 378.7 216.0L378.7 216.0Q380.2 216.0 381.5 215.6Q382.8 215.1 383.7 214.3Q384.5 213.4 385.0 212.2L385.0 212.2L393.4 212.8Q392.8 215.8 390.8 218.0Q388.8 220.3 385.7 221.5Q382.6 222.8 378.6 222.8ZM424.8 198.7L424.8 198.7L416.4 199.2Q416.2 198.2 415.5 197.3Q414.8 196.5 413.7 195.9Q412.5 195.4 411.0 195.4L411.0 195.4Q408.9 195.4 407.4 196.3Q406.0 197.2 406.0 198.6L406.0 198.6Q406.0 199.8 406.9 200.6Q407.8 201.4 410.1 201.9L410.1 201.9L416.0 203.1Q420.8 204.1 423.2 206.3Q425.5 208.4 425.5 212.0L425.5 212.0Q425.5 215.2 423.6 217.6Q421.7 220.1 418.5 221.4Q415.2 222.8 410.9 222.8L410.9 222.8Q404.4 222.8 400.6 220.0Q396.7 217.3 396.1 212.6L396.1 212.6L405.0 212.2Q405.4 214.2 407.0 215.2Q408.5 216.2 411.0 216.2L411.0 216.2Q413.3 216.2 414.8 215.3Q416.3 214.4 416.3 212.9L416.3 212.9Q416.3 211.7 415.2 210.9Q414.2 210.1 412.1 209.6L412.1 209.6L406.4 208.5Q401.6 207.6 399.3 205.2Q397.0 202.8 397.0 199.2L397.0 199.2Q397.0 196.0 398.7 193.7Q400.4 191.4 403.5 190.2Q406.6 189.0 410.8 189.0L410.8 189.0Q417.0 189.0 420.6 191.6Q424.2 194.2 424.8 198.7ZM456.5 198.7L456.5 198.7L448.2 199.2Q447.9 198.2 447.2 197.3Q446.5 196.5 445.4 195.9Q444.3 195.4 442.7 195.4L442.7 195.4Q440.6 195.4 439.1 196.3Q437.7 197.2 437.7 198.6L437.7 198.6Q437.7 199.8 438.6 200.6Q439.5 201.4 441.8 201.9L441.8 201.9L447.8 203.1Q452.5 204.1 454.9 206.3Q457.2 208.4 457.2 212.0L457.2 212.0Q457.2 215.2 455.3 217.6Q453.4 220.1 450.2 221.4Q446.9 222.8 442.6 222.8L442.6 222.8Q436.1 222.8 432.3 220.0Q428.4 217.3 427.8 212.6L427.8 212.6L436.7 212.2Q437.1 214.2 438.7 215.2Q440.2 216.2 442.7 216.2L442.7 216.2Q445.0 216.2 446.5 215.3Q448.0 214.4 448.0 212.9L448.0 212.9Q448.0 211.7 446.9 210.9Q445.9 210.1 443.8 209.6L443.8 209.6L438.1 208.5Q433.3 207.6 431.0 205.2Q428.7 202.8 428.7 199.2L428.7 199.2Q428.7 196.0 430.4 193.7Q432.1 191.4 435.2 190.2Q438.3 189.0 442.5 189.0L442.5 189.0Q448.7 189.0 452.3 191.6Q455.9 194.2 456.5 198.7ZM470.3 222.7L470.3 222.7Q467.1 222.7 464.7 221.6Q462.2 220.5 460.8 218.4Q459.4 216.2 459.4 213.0L459.4 213.0Q459.4 210.3 460.4 208.4Q461.4 206.5 463.1 205.4Q464.9 204.3 467.1 203.7Q469.3 203.1 471.7 202.9L471.7 202.9Q474.6 202.6 476.3 202.3Q478.1 202.1 478.8 201.5Q479.6 201.0 479.6 200.0L479.6 200.0L479.6 199.8Q479.6 197.8 478.4 196.7Q477.1 195.6 474.8 195.6L474.8 195.6Q472.3 195.6 470.9 196.7Q469.4 197.8 469.0 199.4L469.0 199.4L460.6 198.7Q461.2 195.7 463.1 193.5Q464.9 191.3 467.9 190.2Q470.9 189.0 474.8 189.0L474.8 189.0Q477.5 189.0 480.0 189.6Q482.5 190.3 484.5 191.6Q486.4 192.9 487.6 195.0Q488.7 197.1 488.7 200.1L488.7 200.1L488.7 222.1L480.1 222.1L480.1 217.6L479.8 217.6Q479.1 219.1 477.7 220.3Q476.4 221.4 474.6 222.1Q472.7 222.7 470.3 222.7ZM472.9 216.5L472.9 216.5Q474.9 216.5 476.4 215.7Q477.9 214.9 478.8 213.5Q479.7 212.2 479.7 210.4L479.7 210.4L479.7 207.0Q479.3 207.2 478.5 207.5Q477.8 207.7 476.9 207.9Q476.0 208.0 475.0 208.2Q474.1 208.3 473.4 208.4L473.4 208.4Q471.8 208.7 470.6 209.2Q469.4 209.7 468.7 210.5Q468.1 211.4 468.1 212.7L468.1 212.7Q468.1 214.5 469.4 215.5Q470.8 216.5 472.9 216.5ZM508.5 235.1L508.5 235.1Q504.1 235.1 500.9 233.9Q497.8 232.7 496.0 230.6Q494.1 228.5 493.5 226.0L493.5 226.0L501.9 224.8Q502.3 225.8 503.2 226.7Q504.0 227.5 505.4 228.0Q506.7 228.6 508.7 228.6L508.7 228.6Q511.7 228.6 513.6 227.1Q515.5 225.7 515.5 222.3L515.5 222.3L515.5 216.3L515.1 216.3Q514.6 217.7 513.4 218.9Q512.2 220.1 510.3 220.9Q508.4 221.7 505.8 221.7L505.8 221.7Q502.1 221.7 499.1 219.9Q496.1 218.2 494.3 214.7Q492.5 211.1 492.5 205.7L492.5 205.7Q492.5 200.1 494.4 196.4Q496.2 192.7 499.2 190.8Q502.2 189.0 505.8 189.0L505.8 189.0Q508.5 189.0 510.4 189.9Q512.3 190.8 513.4 192.2Q514.5 193.6 515.1 194.9L515.1 194.9L515.5 194.9L515.5 189.4L524.5 189.4L524.5 222.4Q524.5 226.6 522.5 229.4Q520.4 232.2 516.8 233.7Q513.2 235.1 508.5 235.1ZM508.7 214.8L508.7 214.8Q510.9 214.8 512.4 213.7Q513.9 212.6 514.8 210.6Q515.6 208.5 515.6 205.7L515.6 205.7Q515.6 202.8 514.8 200.7Q514.0 198.5 512.4 197.4Q510.9 196.2 508.7 196.2L508.7 196.2Q506.5 196.2 504.9 197.4Q503.4 198.6 502.6 200.7Q501.8 202.9 501.8 205.7L501.8 205.7Q501.8 208.5 502.6 210.5Q503.4 212.6 504.9 213.7Q506.5 214.8 508.7 214.8ZM544.7 222.8L544.7 222.8Q539.6 222.8 536.0 220.7Q532.3 218.7 530.4 214.9Q528.4 211.1 528.4 205.9L528.4 205.9Q528.4 200.9 530.4 197.0Q532.3 193.2 535.9 191.1Q539.5 189.0 544.3 189.0L544.3 189.0Q547.5 189.0 550.3 190.0Q553.1 191.0 555.2 193.1Q557.3 195.2 558.5 198.3Q559.7 201.4 559.7 205.6L559.7 205.6L559.7 208.1L532.0 208.1L532.0 202.5L551.1 202.5Q551.1 200.5 550.3 199.0Q549.4 197.5 547.9 196.6Q546.4 195.7 544.4 195.7L544.4 195.7Q542.4 195.7 540.8 196.7Q539.2 197.6 538.3 199.2Q537.4 200.8 537.4 202.8L537.4 202.8L537.4 208.1Q537.4 210.5 538.3 212.3Q539.2 214.1 540.9 215.0Q542.5 216.0 544.8 216.0L544.8 216.0Q546.3 216.0 547.6 215.6Q548.8 215.1 549.7 214.3Q550.6 213.4 551.1 212.2L551.1 212.2L559.5 212.8Q558.9 215.8 556.9 218.0Q554.9 220.3 551.8 221.5Q548.7 222.8 544.7 222.8Z "/></clipPath><defs><pattern id="satori_pattern_id-1_0" x="0" y="0" width="1" height="1" patternUnits="objectBoundingBox"><linearGradient id="satori_biid-1_0" x1="0" y1="0" x2="1" y2="0" spreadMethod="pad"><stop offset="0%" stop-color="rgb(121, 40, 202)"/><stop offset="100%" stop-color="rgb(255, 0, 128)"/></linearGradient><rect x="0" y="0" width="334" height="72" fill="url(#satori_biid-1_0)"/></pattern></defs><mask id="satori_om-id-1"><rect x="233" y="164" width="334" height="72" fill="#fff"/></mask><rect x="233" y="164" width="334" height="72" fill="url(#satori_pattern_id-1_0)" clip-path="url(#satori_bct-id-1)"/><clipPath id="satori_bct-id-2"><path d="M377.8 250.5L387.0 250.5L387.0 294.1L377.8 294.1L377.8 250.5ZM401.9 294.1L392.6 294.1L392.6 250.5L409.8 250.5Q414.8 250.5 418.3 252.4Q421.8 254.3 423.6 257.6Q425.5 260.9 425.5 265.3L425.5 265.3Q425.5 269.6 423.6 272.9Q421.7 276.3 418.2 278.1Q414.6 280.0 409.6 280.0L409.6 280.0L398.6 280.0L398.6 272.6L408.1 272.6Q410.8 272.6 412.5 271.7Q414.3 270.7 415.1 269.1Q416.0 267.4 416.0 265.3L416.0 265.3Q416.0 263.1 415.1 261.5Q414.3 259.8 412.5 258.9Q410.8 258.0 408.1 258.0L408.1 258.0L401.9 258.0L401.9 294.1Z "/></clipPath><defs><pattern id="satori_pattern_id-2_0" x="0" y="0" width="1" height="1" patternUnits="objectBoundingBox"><linearGradient id="satori_biid-2_0" x1="0" y1="0" x2="1" y2="0" spreadMethod="pad"><stop offset="0%" stop-color="rgb(255, 77, 77)"/><stop offset="100%" stop-color="rgb(249, 203, 40)"/></linearGradient><rect x="0" y="0" width="52" height="73" fill="url(#satori_biid-2_0)"/></pattern></defs><mask id="satori_om-id-2"><rect x="374" y="236" width="52" height="73" fill="#fff"/></mask><rect x="374" y="236" width="52" height="73" fill="url(#satori_pattern_id-2_0)" clip-path="url(#satori_bct-id-2)"/></svg>