<svg width="800" height="400" viewBox="0 0 800 400" xmlns="http://www.w3.org/2000/svg"><defs><pattern id="satori_pattern_id_0" x="0" y="0" width="1" height="1" patternUnits="objectBoundingBox"><linearGradient id="satori_biid_0" x1="0" y1="0" x2="0" y2="1" spreadMethod="pad"><stop offset="0%" stop-color="#dbf4ff"/><stop offset="100%" stop-color="#fff1f1"/></linearGradient><rect x="0" y="0" width="800" height="400" fill="url(#satori_biid_0)"/></pattern></defs><mask id="satori_om-id"><rect x="0" y="0" width="800" height="400" fill="#fff"/></mask><rect x="0" y="0" width="800" height="400" fill="url(#satori_pattern_id_0)"/><clipPath id="satori_bct-id-0"><path d="M273.3 115.5L262.3 149.1L252.4 149.1L267.5 105.5L279.4 105.5L294.4 149.1L284.5 149.1L273.6 115.5L273.3 115.5ZM261.7 139.2L261.7 132.0L285.0 132.0L285.0 139.2L261.7 139.2ZM306.6 161.4L297.5 161.4L297.5 116.4L306.4 116.4L306.4 121.9L306.8 121.9Q307.4 120.6 308.6 119.2Q309.7 117.8 311.6 116.9Q313.4 116.0 316.2 116.0L316.2 116.0Q319.7 116.0 322.8 117.8Q325.8 119.7 327.6 123.4Q329.4 127.2 329.4 132.8L329.4 132.8Q329.4 138.3 327.7 142.0Q325.9 145.8 322.9 147.7Q319.9 149.7 316.1 149.7L316.1 149.7Q313.5 149.7 311.7 148.8Q309.8 147.9 308.6 146.6Q307.5 145.2 306.8 143.9L306.8 143.9L306.6 143.9L306.6 161.4ZM306.4 132.8L306.4 132.8Q306.4 135.7 307.2 137.9Q308.0 140.0 309.5 141.2Q311.1 142.4 313.3 142.4L313.3 142.4Q315.5 142.4 317.0 141.2Q318.5 140.0 319.3 137.8Q320.1 135.6 320.1 132.8L320.1 132.8Q320.1 129.9 319.4 127.8Q318.6 125.6 317.0 124.4Q315.5 123.2 313.3 123.2L313.3 123.2Q311.0 123.2 309.5 124.4Q308.0 125.5 307.2 127.7Q306.4 129.8 306.4 132.8ZM342.5 161.4L333.4 161.4L333.4 116.4L342.4 116.4L342.4 121.9L342.8 121.9Q343.4 120.6 344.5 119.2Q345.7 117.8 347.5 116.9Q349.4 116.0 352.1 116.0L352.1 116.0Q355.7 116.0 358.7 117.8Q361.7 119.7 363.5 123.4Q365.4 127.2 365.4 132.8L365.4 132.8Q365.4 138.3 363.6 142.0Q361.8 145.8 358.8 147.7Q355.8 149.7 352.1 149.7L352.1 149.7Q349.4 149.7 347.6 148.8Q345.8 147.9 344.6 146.6Q343.4 145.2 342.8 143.9L342.8 143.9L342.5 143.9L342.5 161.4ZM342.3 132.8L342.3 132.8Q342.3 135.7 343.1 137.9Q343.9 140.0 345.5 141.2Q347.0 142.4 349.2 142.4L349.2 142.4Q351.4 142.4 353.0 141.2Q354.5 140.0 355.3 137.8Q356.1 135.6 356.1 132.8L356.1 132.8Q356.1 129.9 355.3 127.8Q354.5 125.6 353.0 124.4Q351.4 123.2 349.2 123.2L349.2 123.2Q347.0 123.2 345.5 124.4Q343.9 125.5 343.1 127.7Q342.3 129.8 342.3 132.8ZM378.5 149.1L369.4 149.1L369.4 116.4L378.2 116.4L378.2 122.1L378.5 122.1Q379.4 119.1 381.5 117.5Q383.6 115.9 386.4 115.9L386.4 115.9Q387.1 115.9 387.9 116.0Q388.7 116.1 389.2 116.2L389.2 116.2L389.2 124.3Q388.6 124.1 387.5 124.0Q386.3 123.8 385.4 123.8L385.4 123.8Q383.4 123.8 381.8 124.7Q380.3 125.5 379.4 127.1Q378.5 128.6 378.5 130.6L378.5 130.6L378.5 149.1ZM405.3 149.8L405.3 149.8Q400.2 149.8 396.6 147.7Q393.0 145.7 391.0 141.9Q389.1 138.1 389.1 132.9L389.1 132.9Q389.1 127.9 391.0 124.0Q393.0 120.2 396.5 118.1Q400.1 116.0 404.9 116.0L404.9 116.0Q408.2 116.0 411.0 117.0Q413.8 118.0 415.9 120.1Q418.0 122.2 419.1 125.3Q420.3 128.4 420.3 132.6L420.3 132.6L420.3 135.1L392.7 135.1L392.7 129.5L411.8 129.5Q411.8 127.5 410.9 126.0Q410.1 124.5 408.6 123.6Q407.1 122.7 405.1 122.7L405.1 122.7Q403.0 122.7 401.4 123.7Q399.8 124.6 398.9 126.2Q398.0 127.8 398.0 129.8L398.0 129.8L398.0 135.1Q398.0 137.5 398.9 139.3Q399.8 141.1 401.5 142.0Q403.2 143.0 405.4 143.0L405.4 143.0Q407.0 143.0 408.2 142.6Q409.5 142.1 410.4 141.3Q411.3 140.4 411.7 139.2L411.7 139.2L420.1 139.8Q419.5 142.8 417.5 145.0Q415.5 147.3 412.4 148.5Q409.3 149.8 405.3 149.8ZM433.3 130.2L433.3 130.2L433.3 149.1L424.2 149.1L424.2 116.4L432.9 116.4L432.9 122.2L433.3 122.2Q434.4 119.3 436.9 117.6Q439.5 116.0 443.1 116.0L443.1 116.0Q446.5 116.0 449.1 117.5Q451.6 119.0 453.0 121.7Q454.4 124.5 454.4 128.3L454.4 128.3L454.4 149.1L445.3 149.1L445.3 129.9Q445.4 126.9 443.8 125.2Q442.2 123.5 439.5 123.5L439.5 123.5Q437.7 123.5 436.3 124.3Q434.9 125.1 434.1 126.6Q433.3 128.1 433.3 130.2ZM471.6 149.7L471.6 149.7Q467.9 149.7 464.9 147.7Q461.8 145.8 460.1 142.0Q458.3 138.3 458.3 132.8L458.3 132.8Q458.3 127.2 460.1 123.4Q462.0 119.7 465.0 117.8Q468.0 116.0 471.6 116.0L471.6 116.0Q474.3 116.0 476.2 116.9Q478.0 117.8 479.2 119.2Q480.3 120.6 480.9 121.9L480.9 121.9L481.2 121.9L481.2 105.5L490.2 105.5L490.2 149.1L481.3 149.1L481.3 143.9L480.9 143.9Q480.3 145.2 479.1 146.6Q477.9 147.9 476.1 148.8Q474.2 149.7 471.6 149.7ZM474.5 142.4L474.5 142.4Q476.7 142.4 478.2 141.2Q479.7 140.0 480.5 137.9Q481.4 135.7 481.4 132.8L481.4 132.8Q481.4 129.8 480.6 127.7Q479.7 125.5 478.2 124.4Q476.7 123.2 474.5 123.2L474.5 123.2Q472.2 123.2 470.7 124.4Q469.2 125.6 468.4 127.8Q467.6 129.9 467.6 132.8L467.6 132.8Q467.6 135.6 468.4 137.8Q469.2 140.0 470.7 141.2Q472.2 142.4 474.5 142.4ZM504.7 149.1L495.7 149.1L495.7 116.4L504.5 116.4L504.5 122.1L504.8 122.1Q505.7 119.1 507.8 117.5Q509.9 115.9 512.7 115.9L512.7 115.9Q513.3 115.9 514.1 116.0Q514.9 116.1 515.5 116.2L515.5 116.2L515.5 124.3Q514.9 124.1 513.8 124.0Q512.6 123.8 511.7 123.8L511.7 123.8Q509.7 123.8 508.1 124.7Q506.6 125.5 505.6 127.1Q504.7 128.6 504.7 130.6L504.7 130.6L504.7 149.1ZM531.6 149.8L531.6 149.8Q526.5 149.8 522.9 147.7Q519.3 145.7 517.3 141.9Q515.3 138.1 515.3 132.9L515.3 132.9Q515.3 127.9 517.3 124.0Q519.3 120.2 522.8 118.1Q526.4 116.0 531.2 116.0L531.2 116.0Q534.4 116.0 537.2 117.0Q540.0 118.0 542.1 120.1Q544.2 122.2 545.4 125.3Q546.6 128.4 546.6 132.6L546.6 132.6L546.6 135.1L519.0 135.1L519.0 129.5L538.0 129.5Q538.0 127.5 537.2 126.0Q536.3 124.5 534.8 123.6Q533.3 122.7 531.4 122.7L531.4 122.7Q529.3 122.7 527.7 123.7Q526.1 124.6 525.2 126.2Q524.3 127.8 524.3 129.8L524.3 129.8L524.3 135.1Q524.3 137.5 525.2 139.3Q526.1 141.1 527.8 142.0Q529.4 143.0 531.7 143.0L531.7 143.0Q533.2 143.0 534.5 142.6Q535.7 142.1 536.6 141.3Q537.5 140.4 538.0 139.2L538.0 139.2L546.4 139.8Q545.8 142.8 543.8 145.0Q541.8 147.3 538.7 148.5Q535.6 149.8 531.6 149.8Z "/></clipPath><defs><pattern id="satori_pattern_id-0_0" x="0" y="0" width="1" height="1" patternUnits="objectBoundingBox"><linearGradient id="satori_biid-0_0" x1="0" y1="0" x2="1" y2="0" spreadMethod="pad"><stop offset="0%" stop-color="rgb(0, 124, 240)"/><stop offset="100%" stop-color="rgb(0, 223, 216)"/></linearGradient><rect x="0" y="0" width="299" height="73" fill="url(#satori_biid-0_0)"/></pattern></defs><mask id="satori_om-id-0"><rect x="251" y="91" width="299" height="73" fill="#fff"/></mask><rect x="251" y="91" width="299" height="73" fill="url(#satori_pattern_id-0_0)" clip-path="url(#satori_bct-id-0)"/><clipPath id="satori_bct-id-1"><path d="M364.3 193.8L364.3 193.8L355.0 193.8Q354.7 192.0 353.9 190.5Q353.1 189.1 351.9 188.1Q350.7 187.1 349.0 186.6Q347.4 186.1 345.6 186.1L345.6 186.1Q342.2 186.1 339.7 187.7Q337.1 189.4 335.8 192.6Q334.4 195.8 334.4 200.3L334.4 200.3Q334.4 205.0 335.8 208.1Q337.2 211.3 339.7 212.9Q342.2 214.6 345.5 214.6L345.5 214.6Q347.4 214.6 348.9 214.1Q350.5 213.6 351.8 212.6Q353.0 211.7 353.8 210.3Q354.6 209.0 355.0 207.2L355.0 207.2L364.3 207.3Q363.9 210.3 362.5 213.0Q361.1 215.8 358.6 218.0Q356.2 220.2 352.9 221.5Q349.5 222.7 345.4 222.7L345.4 222.7Q339.5 222.7 334.9 220.1Q330.3 217.4 327.7 212.4Q325.0 207.4 325.0 200.3L325.0 200.3Q325.0 193.2 327.7 188.2Q330.4 183.2 335.0 180.5Q339.6 177.9 345.4 177.9L345.4 177.9Q349.1 177.9 352.4 179.0Q355.6 180.0 358.2 182.1Q360.7 184.1 362.3 187.0Q363.8 190.0 364.3 193.8ZM377.8 222.1L368.8 222.1L368.8 189.4L377.5 189.4L377.5 195.1L377.9 195.1Q378.8 192.1 380.9 190.5Q383.0 188.9 385.8 188.9L385.8 188.9Q386.4 188.9 387.2 189.0Q388.0 189.1 388.6 189.2L388.6 189.2L388.6 197.3Q388.0 197.1 386.8 197.0Q385.7 196.8 384.8 196.8L384.8 196.8Q382.8 196.8 381.2 197.7Q379.6 198.5 378.7 200.1Q377.8 201.6 377.8 203.6L377.8 203.6L377.8 222.1ZM404.7 222.8L404.7 222.8Q399.6 222.8 396.0 220.7Q392.3 218.7 390.4 214.9Q388.4 211.1 388.4 205.9L388.4 205.9Q388.4 200.9 390.4 197.0Q392.3 193.2 395.9 191.1Q399.5 189.0 404.3 189.0L404.3 189.0Q407.5 189.0 410.3 190.0Q413.1 191.0 415.2 193.1Q417.3 195.2 418.5 198.3Q419.7 201.4 419.7 205.6L419.7 205.6L419.7 208.1L392.0 208.1L392.0 202.5L411.1 202.5Q411.1 200.5 410.3 199.0Q409.4 197.5 407.9 196.6Q406.4 195.7 404.4 195.7L404.4 195.7Q402.4 195.7 400.8 196.7Q399.2 197.6 398.3 199.2Q397.4 200.8 397.4 202.8L397.4 202.8L397.4 208.1Q397.4 210.5 398.3 212.3Q399.2 214.1 400.9 215.0Q402.5 216.0 404.8 216.0L404.8 216.0Q406.3 216.0 407.6 215.6Q408.8 215.1 409.7 214.3Q410.6 213.4 411.1 212.2L411.1 212.2L419.5 212.8Q418.8 215.8 416.9 218.0Q414.9 220.3 411.8 221.5Q408.7 222.8 404.7 222.8ZM407.2 185.2L400.8 185.2L405.3 175.5L413.7 175.5L407.2 185.2ZM438.5 222.8L438.5 222.8Q433.5 222.8 429.8 220.7Q426.2 218.7 424.2 214.9Q422.3 211.1 422.3 205.9L422.3 205.9Q422.3 200.9 424.2 197.0Q426.2 193.2 429.8 191.1Q433.3 189.0 438.2 189.0L438.2 189.0Q441.4 189.0 444.2 190.0Q447.0 191.0 449.1 193.1Q451.2 195.2 452.4 198.3Q453.5 201.4 453.5 205.6L453.5 205.6L453.5 208.1L425.9 208.1L425.9 202.5L445.0 202.5Q445.0 200.5 444.1 199.0Q443.3 197.5 441.8 196.6Q440.3 195.7 438.3 195.7L438.3 195.7Q436.2 195.7 434.6 196.7Q433.1 197.6 432.2 199.2Q431.3 200.8 431.2 202.8L431.2 202.8L431.2 208.1Q431.2 210.5 432.2 212.3Q433.1 214.1 434.7 215.0Q436.4 216.0 438.7 216.0L438.7 216.0Q440.2 216.0 441.4 215.6Q442.7 215.1 443.6 214.3Q444.5 213.4 444.9 212.2L444.9 212.2L453.3 212.8Q452.7 215.8 450.7 218.0Q448.8 220.3 445.7 221.5Q442.6 222.8 438.5 222.8ZM466.5 222.1L457.5 222.1L457.5 189.4L466.3 189.4L466.3 195.1L466.6 195.1Q467.5 192.1 469.6 190.5Q471.7 188.9 474.5 188.9L474.5 188.9Q475.1 188.9 475.9 189.0Q476.7 189.1 477.3 189.2L477.3 189.2L477.3 197.3Q476.7 197.1 475.5 197.0Q474.4 196.8 473.5 196.8L473.5 196.8Q471.5 196.8 469.9 197.7Q468.3 198.5 467.4 200.1Q466.5 201.6 466.5 203.6L466.5 203.6L466.5 222.1Z "/></clipPath><defs><pattern id="satori_pattern_id-1_0" x="0" y="0" width="1" height="1" patternUnits="objectBoundingBox"><linearGradient id="satori_biid-1_0" x1="0" y1="0" x2="1" y2="0" spreadMethod="pad"><stop offset="0%" stop-color="rgb(121, 40, 202)"/><stop offset="100%" stop-color="rgb(255, 0, 128)"/></linearGradient><rect x="0" y="0" width="156" height="72" fill="url(#satori_biid-1_0)"/></pattern></defs><mask id="satori_om-id-1"><rect x="322" y="164" width="156" height="72" fill="#fff"/></mask><rect x="322" y="164" width="156" height="72" fill="url(#satori_pattern_id-1_0)" clip-path="url(#satori_bct-id-1)"/><clipPath id="satori_bct-id-2"><path d="M254.3 260.5L243.3 294.1L233.4 294.1L248.5 250.5L260.4 250.5L275.4 294.1L265.5 294.1L254.6 260.5L254.3 260.5ZM242.7 284.2L242.7 277.0L266.0 277.0L266.0 284.2L242.7 284.2ZM287.6 306.4L278.5 306.4L278.5 261.4L287.4 261.4L287.4 266.9L287.8 266.9Q288.4 265.6 289.6 264.2Q290.7 262.8 292.6 261.9Q294.4 261.0 297.2 261.0L297.2 261.0Q300.7 261.0 303.8 262.8Q306.8 264.7 308.6 268.4Q310.4 272.2 310.4 277.8L310.4 277.8Q310.4 283.3 308.7 287.0Q306.9 290.8 303.9 292.7Q300.9 294.7 297.1 294.7L297.1 294.7Q294.5 294.7 292.7 293.8Q290.8 292.9 289.6 291.6Q288.5 290.2 287.8 288.9L287.8 288.9L287.6 288.9L287.6 306.4ZM287.4 277.8L287.4 277.8Q287.4 280.7 288.2 282.9Q289.0 285.0 290.5 286.2Q292.1 287.4 294.3 287.4L294.3 287.4Q296.5 287.4 298.0 286.2Q299.5 285.0 300.3 282.8Q301.1 280.6 301.1 277.8L301.1 277.8Q301.1 274.9 300.4 272.8Q299.6 270.6 298.0 269.4Q296.5 268.2 294.3 268.2L294.3 268.2Q292.0 268.2 290.5 269.4Q289.0 270.5 288.2 272.7Q287.4 274.8 287.4 277.8ZM323.5 306.4L314.4 306.4L314.4 261.4L323.4 261.4L323.4 266.9L323.8 266.9Q324.4 265.6 325.5 264.2Q326.7 262.8 328.5 261.9Q330.4 261.0 333.1 261.0L333.1 261.0Q336.7 261.0 339.7 262.8Q342.7 264.7 344.5 268.4Q346.4 272.2 346.4 277.8L346.4 277.8Q346.4 283.3 344.6 287.0Q342.8 290.8 339.8 292.7Q336.8 294.7 333.1 294.7L333.1 294.7Q330.4 294.7 328.6 293.8Q326.8 292.9 325.6 291.6Q324.4 290.2 323.8 288.9L323.8 288.9L323.5 288.9L323.5 306.4ZM323.3 277.8L323.3 277.8Q323.3 280.7 324.1 282.9Q324.9 285.0 326.5 286.2Q328.0 287.4 330.2 287.4L330.2 287.4Q332.4 287.4 334.0 286.2Q335.5 285.0 336.3 282.8Q337.1 280.6 337.1 277.8L337.1 277.8Q337.1 274.9 336.3 272.8Q335.5 270.6 334.0 269.4Q332.4 268.2 330.2 268.2L330.2 268.2Q328.0 268.2 326.5 269.4Q324.9 270.5 324.1 272.7Q323.3 274.8 323.3 277.8ZM359.5 294.1L350.4 294.1L350.4 261.4L359.2 261.4L359.2 267.1L359.5 267.1Q360.4 264.1 362.5 262.5Q364.6 260.9 367.4 260.9L367.4 260.9Q368.1 260.9 368.9 261.0Q369.7 261.1 370.2 261.2L370.2 261.2L370.2 269.3Q369.6 269.1 368.5 269.0Q367.3 268.8 366.4 268.8L366.4 268.8Q364.4 268.8 362.8 269.7Q361.3 270.5 360.4 272.1Q359.5 273.6 359.5 275.6L359.5 275.6L359.5 294.1ZM386.2 294.8L386.2 294.8Q381.2 294.8 377.6 292.6Q374.0 290.5 372.0 286.7Q370.1 282.9 370.1 277.9L370.1 277.9Q370.1 272.8 372.0 269.0Q374.0 265.2 377.6 263.1Q381.2 261.0 386.2 261.0L386.2 261.0Q391.1 261.0 394.7 263.1Q398.4 265.2 400.3 269.0Q402.3 272.8 402.3 277.9L402.3 277.9Q402.3 282.9 400.3 286.7Q398.4 290.5 394.7 292.6Q391.1 294.8 386.2 294.8ZM386.2 287.7L386.2 287.7Q388.5 287.7 390.0 286.4Q391.5 285.2 392.3 282.9Q393.0 280.7 393.0 277.8L393.0 277.8Q393.0 275.0 392.3 272.7Q391.5 270.5 390.0 269.2Q388.5 267.9 386.2 267.9L386.2 267.9Q383.9 267.9 382.4 269.2Q380.8 270.5 380.1 272.7Q379.3 275.0 379.3 277.8L379.3 277.8Q379.3 280.7 380.1 282.9Q380.8 285.2 382.4 286.4Q383.9 287.7 386.2 287.7ZM403.6 261.4L423.8 261.4L423.8 268.2L403.6 268.2L403.6 261.4ZM417.3 294.1L408.2 294.1L408.2 259.0Q408.2 255.5 409.6 253.1Q411.0 250.8 413.4 249.6Q415.9 248.4 419.0 248.4L419.0 248.4Q421.0 248.4 422.8 248.8Q424.5 249.1 425.4 249.3L425.4 249.3L423.8 256.2Q423.2 256.0 422.4 255.8Q421.7 255.7 420.9 255.7L420.9 255.7Q418.9 255.7 418.1 256.6Q417.3 257.5 417.3 259.2L417.3 259.2L417.3 294.1ZM441.0 294.8L441.0 294.8Q436.0 294.8 432.4 292.6Q428.8 290.5 426.8 286.7Q424.9 282.9 424.9 277.9L424.9 277.9Q424.9 272.8 426.8 269.0Q428.8 265.2 432.4 263.1Q436.0 261.0 441.0 261.0L441.0 261.0Q445.9 261.0 449.5 263.1Q453.2 265.2 455.1 269.0Q457.1 272.8 457.1 277.9L457.1 277.9Q457.1 282.9 455.1 286.7Q453.2 290.5 449.5 292.6Q445.9 294.8 441.0 294.8ZM441.0 287.7L441.0 287.7Q443.3 287.7 444.8 286.4Q446.3 285.2 447.1 282.9Q447.9 280.7 447.9 277.8L447.9 277.8Q447.9 275.0 447.1 272.7Q446.3 270.5 444.8 269.2Q443.3 267.9 441.0 267.9L441.0 267.9Q438.7 267.9 437.2 269.2Q435.6 270.5 434.9 272.7Q434.1 275.0 434.1 277.8L434.1 277.8Q434.1 280.7 434.9 282.9Q435.6 285.2 437.2 286.4Q438.7 287.7 441.0 287.7ZM470.1 275.2L470.1 275.2L470.1 294.1L461.0 294.1L461.0 261.4L469.7 261.4L469.7 267.2L470.0 267.2Q471.1 264.3 473.7 262.6Q476.2 261.0 479.9 261.0L479.9 261.0Q483.3 261.0 485.8 262.5Q488.4 264.0 489.8 266.7Q491.2 269.5 491.2 273.3L491.2 273.3L491.2 294.1L482.1 294.1L482.1 274.9Q482.1 271.9 480.6 270.2Q479.0 268.5 476.3 268.5L476.3 268.5Q474.4 268.5 473.1 269.3Q471.7 270.1 470.9 271.6Q470.1 273.1 470.1 275.2ZM508.4 294.7L508.4 294.7Q504.6 294.7 501.6 292.7Q498.6 290.8 496.9 287.0Q495.1 283.3 495.1 277.8L495.1 277.8Q495.1 272.2 496.9 268.4Q498.7 264.7 501.7 262.8Q504.8 261.0 508.4 261.0L508.4 261.0Q511.1 261.0 512.9 261.9Q514.8 262.8 515.9 264.2Q517.1 265.6 517.7 266.9L517.7 266.9L517.9 266.9L517.9 250.5L527.0 250.5L527.0 294.1L518.0 294.1L518.0 288.9L517.7 288.9Q517.0 290.2 515.9 291.6Q514.7 292.9 512.9 293.8Q511.0 294.7 508.4 294.7ZM511.2 287.4L511.2 287.4Q513.4 287.4 515.0 286.2Q516.5 285.0 517.3 282.9Q518.1 280.7 518.1 277.8L518.1 277.8Q518.1 274.8 517.3 272.7Q516.5 270.5 515.0 269.4Q513.4 268.2 511.2 268.2L511.2 268.2Q509.0 268.2 507.5 269.4Q505.9 270.6 505.2 272.8Q504.4 274.9 504.4 277.8L504.4 277.8Q504.4 280.6 505.2 282.8Q506.0 285.0 507.5 286.2Q509.0 287.4 511.2 287.4ZM541.5 294.1L532.4 294.1L532.4 261.4L541.5 261.4L541.5 294.1ZM537.0 257.2L537.0 257.2Q535.0 257.2 533.5 255.8Q532.1 254.5 532.1 252.6L532.1 252.6Q532.1 250.7 533.5 249.3Q535.0 248.0 537.0 248.0L537.0 248.0Q539.0 248.0 540.5 249.3Q541.9 250.7 541.9 252.6L541.9 252.6Q541.9 254.5 540.5 255.8Q539.0 257.2 537.0 257.2ZM555.8 294.1L546.8 294.1L546.8 261.4L555.6 261.4L555.6 267.1L555.9 267.1Q556.8 264.1 558.9 262.5Q561.0 260.9 563.8 260.9L563.8 260.9Q564.4 260.9 565.2 261.0Q566.0 261.1 566.6 261.2L566.6 261.2L566.6 269.3Q566.0 269.1 564.8 269.0Q563.7 268.8 562.8 268.8L562.8 268.8Q560.8 268.8 559.2 269.7Q557.6 270.5 556.7 272.1Q555.8 273.6 555.8 275.6L555.8 275.6L555.8 294.1Z "/></clipPath><defs><pattern id="satori_pattern_id-2_0" x="0" y="0" width="1" height="1" patternUnits="objectBoundingBox"><linearGradient id="satori_biid-2_0" x1="0" y1="0" x2="1" y2="0" spreadMethod="pad"><stop offset="0%" stop-color="rgb(255, 77, 77)"/><stop offset="100%" stop-color="rgb(249, 203, 40)"/></linearGradient><rect x="0" y="0" width="337" height="73" fill="url(#satori_biid-2_0)"/></pattern></defs><mask id="satori_om-id-2"><rect x="232" y="236" width="337" height="73" fill="#fff"/></mask><rect x="232" y="236" width="337" height="73" fill="url(#satori_pattern_id-2_0)" clip-path="url(#satori_bct-id-2)"/></svg>